<?xml version="1.0" encoding="UTF-8" standalone="no"?>
<svg
   xmlns:dc="http://purl.org/dc/elements/1.1/"
   xmlns:cc="http://creativecommons.org/ns#"
   xmlns:rdf="http://www.w3.org/1999/02/22-rdf-syntax-ns#"
   xmlns:svg="http://www.w3.org/2000/svg"
   xmlns="http://www.w3.org/2000/svg"
   id="svg16"
   version="1.1"
   width="502"
   height="210.65"
   viewBox="0 0 502 210.649">
  <metadata
     id="metadata22">
    <rdf:RDF>
      <cc:Work
         rdf:about="">
        <dc:format>image/svg+xml</dc:format>
        <dc:type
           rdf:resource="http://purl.org/dc/dcmitype/StillImage" />
        <dc:title></dc:title>
      </cc:Work>
    </rdf:RDF>
  </metadata>
  <defs
     id="defs20" />
  <g
     id="g14">
    <path
       id="path2"
       fill="#cd201f"
       d="M498.333 45.7s-2.91-20.443-11.846-29.447C475.157 4.44 462.452 4.38 456.627 3.687c-41.7-3-104.25-3-104.25-3h-.13s-62.555 0-104.255 3c-5.826.693-18.523.753-29.86 12.566-8.933 9.004-11.84 29.447-11.84 29.447s-2.983 24.003-2.983 48.009v22.507c0 24.006 2.983 48.013 2.983 48.013s2.907 20.44 11.84 29.446c11.337 11.817 26.23 11.44 32.86 12.677 23.84 2.28 101.315 2.983 101.315 2.983s62.62-.094 104.32-3.093c5.824-.694 18.527-.75 29.857-12.567 8.936-9.006 11.846-29.446 11.846-29.446s2.98-24.007 2.98-48.013V93.709c0-24.006-2.98-48.01-2.98-48.01" />
    <g
       id="g6">
      <text
         transform="scale(0.64281813,1.55565)"
         id="text26"
         y="99.146507"
         x="6.8926725"
         style="font-style:normal;font-weight:normal;font-size:80.55477905px;line-height:1.25;font-family:sans-serif;letter-spacing:0px;word-spacing:0px;fill:#000000;fill-opacity:1;stroke:none;stroke-width:1.77694368"
         xml:space="preserve"><tspan
           style="font-style:normal;font-variant:normal;font-weight:bold;font-stretch:normal;font-size:103.29946136px;line-height:3411.49536133px;font-family:sans-serif;-inkscape-font-specification:'sans-serif Bold';letter-spacing:3.13159418px;stroke-width:1.77694368"
           y="99.146507"
           x="6.8926725"
           id="tspan24">Amau</tspan></text>
      <text
         id="text30"
         y="76.782829"
         x="350.28445"
         style="font-style:normal;font-weight:normal;font-size:40px;line-height:1.25;font-family:sans-serif;letter-spacing:0px;word-spacing:0px;fill:#000000;fill-opacity:1;stroke:none"
         xml:space="preserve"><tspan
           y="112.17345"
           x="350.28445"
           id="tspan28" /></text>
      <text
         id="text34"
         y="158.21838"
         x="188.52888"
         style="font-style:normal;font-weight:normal;font-size:40px;line-height:1.25;font-family:sans-serif;letter-spacing:0px;word-spacing:0px;fill:#000000;fill-opacity:1;stroke:none"
         xml:space="preserve"><tspan
           style="font-style:normal;font-variant:normal;font-weight:normal;font-stretch:normal;font-size:40px;font-family:sans-serif;-inkscape-font-specification:'sans-serif Bold';fill:#000000"
           id="tspan36"
           y="158.21838"
           x="188.52888">   <tspan
   id="tspan38"
   style="font-style:normal;font-variant:normal;font-weight:bold;font-stretch:normal;font-family:sans-serif;-inkscape-font-specification:'sans-serif Bold';fill:#f2f2f2">  <tspan
   id="tspan40"
   style="font-size:160px">LC</tspan></tspan></tspan></text>
    </g>
  </g>
</svg>
